<mxfile host="app.diagrams.net" modified="2022-12-14T03:01:27.026Z" agent="5.0 (Macintosh; Intel Mac OS X 10_15_7) AppleWebKit/537.36 (KHTML, like Gecko) Chrome/108.0.0.0 Safari/537.36" etag="HjYIBO83AWTy8PLVwu-0" version="20.6.2" type="github">
  <diagram id="6a731a19-8d31-9384-78a2-239565b7b9f0" name="Page-1">
    <mxGraphModel dx="946" dy="-267" grid="1" gridSize="10" guides="1" tooltips="1" connect="1" arrows="1" fold="1" page="1" pageScale="1" pageWidth="1169" pageHeight="827" background="none" math="0" shadow="0">
      <root>
        <mxCell id="0" />
        <mxCell id="1" parent="0" />
        <mxCell id="2TVz8fjP1gfRnIbp-4KX-57" value="网关请求图" style="swimlane;childLayout=stackLayout;resizeParent=1;resizeParentMax=0;startSize=20;html=1;" vertex="1" parent="1">
          <mxGeometry x="400" y="940" width="690" height="500" as="geometry" />
        </mxCell>
        <mxCell id="2TVz8fjP1gfRnIbp-4KX-58" value="网关" style="swimlane;startSize=20;html=1;" vertex="1" parent="2TVz8fjP1gfRnIbp-4KX-57">
          <mxGeometry y="20" width="210" height="480" as="geometry" />
        </mxCell>
        <mxCell id="2TVz8fjP1gfRnIbp-4KX-66" value="" style="shape=ext;double=1;rounded=1;whiteSpace=wrap;html=1;" vertex="1" parent="2TVz8fjP1gfRnIbp-4KX-58">
          <mxGeometry x="60" y="40" width="100" height="50" as="geometry" />
        </mxCell>
        <mxCell id="2TVz8fjP1gfRnIbp-4KX-59" value="redis" style="swimlane;startSize=20;html=1;" vertex="1" parent="2TVz8fjP1gfRnIbp-4KX-57">
          <mxGeometry x="210" y="20" width="230" height="480" as="geometry" />
        </mxCell>
        <mxCell id="2TVz8fjP1gfRnIbp-4KX-60" value="应用" style="swimlane;startSize=20;html=1;" vertex="1" parent="2TVz8fjP1gfRnIbp-4KX-57">
          <mxGeometry x="440" y="20" width="250" height="480" as="geometry" />
        </mxCell>
        <mxCell id="2TVz8fjP1gfRnIbp-4KX-65" value="请求request" style="strokeWidth=2;html=1;shape=mxgraph.flowchart.terminator;whiteSpace=wrap;" vertex="1" parent="1">
          <mxGeometry x="280" y="1000" width="85" height="40" as="geometry" />
        </mxCell>
      </root>
    </mxGraphModel>
  </diagram>
</mxfile>
